<svg width="38" height="38" viewBox="0 0 38 38" fill="none" xmlns="http://www.w3.org/2000/svg">
<path d="M4.75 9.49999H7.91667M7.91667 9.49999H33.25M7.91667 9.49999V31.6667C7.91667 32.5065 8.2503 33.312 8.84416 33.9058C9.43803 34.4997 10.2435 34.8333 11.0833 34.8333H26.9167C27.7565 34.8333 28.562 34.4997 29.1558 33.9058C29.7497 33.312 30.0833 32.5065 30.0833 31.6667V9.49999M12.6667 9.49999V6.33332C12.6667 5.49347 13.0003 4.68802 13.5942 4.09415C14.188 3.50029 14.9935 3.16666 15.8333 3.16666H22.1667C23.0065 3.16666 23.812 3.50029 24.4058 4.09415C24.9997 4.68802 25.3333 5.49347 25.3333 6.33332V9.49999" stroke="#1E1E1E" stroke-width="4" stroke-linecap="round" stroke-linejoin="round"/>
</svg>
